<?xml version="1.0" encoding="UTF-8"?>
<svg id="Laag_1" data-name="Laag 1" xmlns="http://www.w3.org/2000/svg" viewBox="0 0 1233.59 369.57">
  <path d="m.94,369.57c-.32-.24-.63-.5-.94-.76.2.15.54.42.94.76Z" stroke-width="0"/>
  <circle cx="1137.52" cy="94.45" r="94.45" fill="#080c80" stroke-width="0"/>
  <path d="m1043.6,104.13c1.89,1.41,5.41,2.36,9.45,2.36s7.56-.95,9.45-2.36c1.89,1.41,5.41,2.36,9.45,2.36s7.56-.95,9.45-2.36c1.89,1.41,5.41,2.36,9.45,2.36s7.56-.95,9.45-2.36" fill="none" stroke="#fff" stroke-miterlimit="10" stroke-width="1.3"/>
  <path d="m1176.52,104.13c1.89,1.41,5.41,2.36,9.45,2.36s7.56-.95,9.45-2.36c1.89,1.41,5.41,2.36,9.45,2.36s7.56-.95,9.45-2.36c1.89,1.41,5.41,2.36,9.45,2.36s7.56-.95,9.45-2.36" fill="none" stroke="#fff" stroke-miterlimit="10" stroke-width="1.3"/>
  <path d="m1083.4,131.05c-10.15.98-17.25,3.23-17.25,5.85,0,3.52,12.85,6.38,28.71,6.38,3.96,0,7.74-.18,11.17-.5" fill="none" stroke="#fff" stroke-miterlimit="10" stroke-width="1.3"/>
  <path d="m1115.02,128.16c2.21.43,4.26.93,6.12,1.5" fill="none" stroke="#fff" stroke-miterlimit="10" stroke-width="1.3"/>
  <path d="m1059.18,129.96c4.19-2.47,12.05-4.03,21.66-4.27" fill="none" stroke="#fff" stroke-miterlimit="10" stroke-width="1.3"/>
  <path d="m1143.98,148.8c-4.41-.79-9.28-1.35-14.41-1.61-7.43-.38-14.39-.07-20.25.77-4.45.57-9.34.88-14.47.88-7.44,0-14.37-.66-20.18-1.8" fill="none" stroke="#fff" stroke-miterlimit="10" stroke-width="1.3"/>
  <path d="m1106.03,155.21c4.41-.79,9.28-1.35,14.41-1.61,7.43-.38,14.39-.07,20.25.77,4.45.57,9.34.88,14.47.88,7.44,0,14.37-.66,20.18-1.8" fill="none" stroke="#fff" stroke-miterlimit="10" stroke-width="1.3"/>
  <path d="m1193.29,132.15c7.91,1.72,13.06,4.1,12.9,6.36-.26,3.52-13.29,5.41-29.1,4.24-7.42-.53-14.38-.36-20.26.37" fill="none" stroke="#fff" stroke-miterlimit="10" stroke-width="1.3"/>
  <path d="m1214.37,132.83c-4-2.86-11.82-5.12-21.52-6.19" fill="none" stroke="#fff" stroke-miterlimit="10" stroke-width="1.3"/>
  <path d="m1188.76,62.33l-51.23-48.6-51.23,49.12-20.41,19.57,7.3,7.69,13.11-12.58v60.05h53.67v-43.5h21.35v43.5h27.44v-60.57l13.85,13.14,7.33-7.73-21.19-20.09Zm-58.46,53.11h-21.35v-21.35h21.35v21.35Z" fill="#fff" stroke-width="0"/>
  <rect x="1108.94" y="94.09" width="21.35" height="21.35" fill="none" stroke="#fff" stroke-miterlimit="10" stroke-width="1.02"/>
  <polyline points="1202.61 90.16 1137.52 28.42 1073.18 90.11" fill="none" stroke="#080c80" stroke-miterlimit="10" stroke-width="1.85"/>
  <rect x="1108.94" y="94.09" width="21.35" height="21.35" fill="#080c80" stroke-width="0"/>
  <polygon points="1179.7 59.29 1167.47 53.79 1167.47 28.42 1179.7 28.42 1179.7 59.29" fill="#fff" stroke-width="0"/>
  <polyline points="1185.79 114.54 1183.54 118.65 1180.4 116.02 1179.82 126.87 1176.48 127.06 1175.9 132.13 1172.95 131.88 1172.75 135.6 1169.74 135.73" fill="none" stroke="#080c80" stroke-miterlimit="10" stroke-width="1.28"/>
</svg>